<svg xmlns="http://www.w3.org/2000/svg" width="32" height="32" viewBox="0 0 32 32">
  <defs>
    <linearGradient id="hg" x1="0%" y1="0%" x2="100%" y2="100%">
      <stop offset="0%" stop-color="#cc1133"/>
      <stop offset="50%" stop-color="#8b0000"/>
      <stop offset="100%" stop-color="#4a0000"/>
    </linearGradient>
    <linearGradient id="glow" x1="50%" y1="0%" x2="50%" y2="100%">
      <stop offset="0%" stop-color="#ff4466" stop-opacity="0.6"/>
      <stop offset="100%" stop-color="#8b0000" stop-opacity="0"/>
    </linearGradient>
    <filter id="shadow">
      <feDropShadow dx="0" dy="0.5" stdDeviation="0.8" flood-color="#ff2244" flood-opacity="0.5"/>
    </filter>
  </defs>

  <!-- Фоновое свечение -->
  <path d="M16 28 C16 28, 3 20, 3 12.5 C3 8, 6 5, 9.5 5 C12 5, 14.5 6.5, 16 9 C17.5 6.5, 20 5, 22.5 5 C26 5, 29 8, 29 12.5 C29 20, 16 28, 16 28Z" fill="url(#glow)" opacity="0.5"/>

  <!-- Основное сердце -->
  <path d="M16 27 C16 27, 3.5 19.5, 3.5 12.5 C3.5 8.5, 6.5 5.5, 9.5 5.5 C12 5.5, 14.5 7, 16 9.5 C17.5 7, 20 5.5, 22.5 5.5 C25.5 5.5, 28.5 8.5, 28.5 12.5 C28.5 19.5, 16 27, 16 27Z" fill="url(#hg)" stroke="#ffd700" stroke-width="0.6" filter="url(#shadow)"/>

  <!-- Трещина главная -->
  <path d="M16 9.5 L14.5 13 L17 15 L14 18 L16.5 21 L15 24.5" stroke="#1a0000" stroke-width="1.2" fill="none" stroke-linecap="round" stroke-linejoin="round" opacity="0.8"/>

  <!-- Трещина левая -->
  <path d="M14.5 13 L11.5 14.5" stroke="#1a0000" stroke-width="0.8" fill="none" stroke-linecap="round" opacity="0.6"/>

  <!-- Трещина правая -->
  <path d="M17 15 L20 14" stroke="#1a0000" stroke-width="0.8" fill="none" stroke-linecap="round" opacity="0.6"/>

  <!-- Трещина нижняя -->
  <path d="M14 18 L11.5 19.5" stroke="#1a0000" stroke-width="0.7" fill="none" stroke-linecap="round" opacity="0.5"/>

  <!-- Золотые шипы/цепь точки -->
  <circle cx="7" cy="9" r="1.2" fill="#ffd700" opacity="0.9"/>
  <circle cx="25" cy="9" r="1.2" fill="#ffd700" opacity="0.9"/>
  <circle cx="5" cy="14" r="0.9" fill="#daa520" opacity="0.7"/>
  <circle cx="27" cy="14" r="0.9" fill="#daa520" opacity="0.7"/>

  <!-- Блик -->
  <ellipse cx="11" cy="10" rx="2.5" ry="1.5" fill="white" opacity="0.12" transform="rotate(-25, 11, 10)"/>

  <!-- Внутренний контур-тень для глубины -->
  <path d="M16 25.5 C16 25.5, 5 18.5, 5 12.5 C5 9.2, 7.5 7, 9.5 7 C11.5 7, 13.8 8, 16 10.5 C18.2 8, 20.5 7, 22.5 7 C24.5 7, 27 9.2, 27 12.5 C27 18.5, 16 25.5, 16 25.5Z" fill="none" stroke="#ff6688" stroke-width="0.3" opacity="0.3"/>
</svg>
